<svg width="24" height="24" viewBox="0 0 24 24" fill="none" xmlns="http://www.w3.org/2000/svg">
<path fill-rule="evenodd" clip-rule="evenodd" d="M14 20H10V11C10 10.4477 10.4477 10 11 10C11.5523 10 12 9.55228 12 9C12 8.44772 11.5523 8 11 8C9.34315 8 8 9.34315 8 11V20H4V17C4 16.4477 4.44772 16 5 16C5.55228 16 6 15.5523 6 15C6 14.4477 5.55228 14 5 14C3.34315 14 2 15.3431 2 17V21C2 21.5523 2.42906 22 2.95833 22H22.0417C22.5709 22 23 21.5523 23 21V5C23 3.34315 21.6569 2 20 2H17C15.3431 2 14 3.34315 14 5V20ZM16 5C16 4.44772 16.4477 4 17 4H20C20.5523 4 21 4.44772 21 5V20H16V5Z" fill="black"/>
</svg>
