<svg width="24" height="24" viewBox="0 0 24 24" fill="none" xmlns="http://www.w3.org/2000/svg">
<path fill-rule="evenodd" clip-rule="evenodd" d="M9.53781 3.01141C11.1037 2.30678 12.8963 2.30678 14.4622 3.01141L22.3896 6.57876C22.4705 6.613 22.5459 6.65758 22.6143 6.71085C22.6671 6.75195 22.7153 6.79802 22.7584 6.8482C22.909 7.02325 23 7.251 23 7.50001V7.50144V16C23 16.5523 22.5523 17 22 17C21.4477 17 21 16.5523 21 16V8.97705L14.2283 11.6857C12.7979 12.2579 11.2021 12.2579 9.77166 11.6857L1.62861 8.42849C1.25611 8.27949 1.00872 7.92229 1.00023 7.52118C0.99173 7.12008 1.22378 6.75273 1.58964 6.58809L9.53781 3.01141ZM13.6415 4.83525C12.5976 4.3655 11.4024 4.3655 10.3585 4.83525L4.5572 7.44586L10.5144 9.82875C11.4681 10.2102 12.5319 10.2102 13.4856 9.82875L19.4428 7.44586L13.6415 4.83525ZM7 13C7 12.4477 6.55228 12 6 12C5.44772 12 5 12.4477 5 13V16.5C5 19.2614 7.23858 21.5 10 21.5H14C16.7614 21.5 19 19.2614 19 16.5V13C19 12.4477 18.5523 12 18 12C17.4477 12 17 12.4477 17 13V16.5C17 18.1569 15.6569 19.5 14 19.5H10C8.34315 19.5 7 18.1569 7 16.5V13Z" fill="black"/>
</svg>
