<svg width="24" height="24" fill="none" xmlns="http://www.w3.org/2000/svg"><path fill-rule="evenodd" clip-rule="evenodd" d="M18 3.806c0-1.35-1.465-2.192-2.632-1.512L10.73 5H7a5 5 0 00-2.87 9.095l1.746 6.11a2.76 2.76 0 00.998 1.45l.071.054a3.097 3.097 0 004.048-.288 2.678 2.678 0 00.666-2.68L10.508 15h.256l4.703 2.352A1.75 1.75 0 0018 15.786V3.806zm-6 2.768l4-2.333v11.141l-4-2V6.574zM10 7H7a3 3 0 000 6h3V7zM7.799 19.656L6.46 14.971c.178.02.358.029.54.029h1.415l1.332 4.329c.074.24.01.5-.168.678-.386.386-.997.43-1.434.102l-.071-.054a.76.76 0 01-.275-.399z" fill="#000"/><path d="M21.724 7.31a1 1 0 10-1.448 1.38c.229.24.345.425.413.594.068.17.111.385.111.716 0 .332-.043.546-.11.716-.069.17-.186.354-.414.594a1 1 0 001.448 1.38c.352-.37.635-.764.822-1.231.187-.468.254-.95.254-1.459 0-.51-.067-.99-.254-1.458-.187-.468-.47-.863-.822-1.232z" fill="#000"/></svg>