<svg width="24" height="24" fill="none" xmlns="http://www.w3.org/2000/svg"><path d="M9 14a1 1 0 10-2 0v3a1 1 0 102 0v-3zm4 3v-3a1 1 0 10-2 0v3a1 1 0 102 0zm3-4a1 1 0 011 1v3a1 1 0 11-2 0v-3a1 1 0 011-1z" fill="#000"/><path fill-rule="evenodd" clip-rule="evenodd" d="M12.707 1.293L19.414 8h.579a3 3 0 012.934 3.624l-1.744 8.207A4 4 0 0117.271 23H6.73a4 4 0 01-3.913-3.169l-1.744-8.207A3 3 0 014.007 8h.579l6.707-6.707a1 1 0 011.414 0zM19.993 10a1 1 0 01.978 1.208l-1.744 8.208A2 2 0 0117.27 21H6.73a2 2 0 01-1.957-1.584L3.03 11.208A1 1 0 014.007 10h15.986zm-3.407-2H7.414L12 3.414 16.586 8z" fill="#000"/></svg>