<svg width="24" height="24" fill="none" xmlns="http://www.w3.org/2000/svg"><path d="M11.992 7.526c1.428 0 2.832.732 2.832 2.4 0 1.056-.516 1.548-1.344 2.184-.516.408-.648.612-.648 1.116v.312H10.96v-.456c0-.84.324-1.248.948-1.8l.396-.372c.276-.24.492-.48.492-.852 0-.504-.336-.84-.876-.84-.66 0-1.008.54-1.032 1.116L8.98 10.13c.18-1.74 1.476-2.604 3.012-2.604zm-.084 6.576c.636 0 1.164.504 1.164 1.128 0 .636-.516 1.14-1.164 1.14-.636 0-1.176-.492-1.176-1.128 0-.624.528-1.14 1.176-1.14z" fill="#000"/><path fill-rule="evenodd" clip-rule="evenodd" d="M12 22c5.523 0 10-4.477 10-10S17.523 2 12 2 2 6.477 2 12s4.477 10 10 10zm8-10a8 8 0 11-16 0 8 8 0 0116 0z" fill="#000"/></svg>