<svg width="24" height="24" fill="none" xmlns="http://www.w3.org/2000/svg"><path fill-rule="evenodd" clip-rule="evenodd" d="M8 4.92l3.375-2.7a1 1 0 011.25 0l10 8a1 1 0 11-1.25 1.56l-.375-.3V19a3 3 0 01-3 3H6a3 3 0 01-3-3v-7.52l-.375.3a1 1 0 11-1.25-1.56L6 6.52V3a1 1 0 112 0v1.92zm-.369 2.856L12 4.28l7.006 5.605A1.002 1.002 0 0019 10v9a1 1 0 01-1 1h-2v-6a3 3 0 00-3-3h-2a3 3 0 00-3 3v6H6a1 1 0 01-1-1v-9a1.06 1.06 0 00-.006-.114l2.624-2.1.013-.01zM14 14v6h-4v-6a1 1 0 011-1h2a1 1 0 011 1z" fill="#24CFFB"/></svg>