<svg width="69" height="45" fill="none" xmlns="http://www.w3.org/2000/svg"><path d="M27.891 21.488L5.22 6.391l8.086 17.656 18.475 4.197-3.89-6.756zM3.224 2.4l26.1 17.4.205.154.153.256 5.271 9.16 1.229 1.229-2.406.358-21.494-4.862-.511-.102-.205-.512-9.928-21.7L0 .25 3.224 2.4z" fill="#412CAC"/><mask id="mask0_48_3167" style="mask-type:luminance" maskUnits="userSpaceOnUse" x="0" y="0" width="37" height="31"><path d="M27.891 21.488L5.22 6.391l8.086 17.656 18.475 4.197-3.89-6.756zM3.224 2.4l26.1 17.4.205.154.153.256 5.271 9.16 1.229 1.229-2.406.358-21.494-4.862-.511-.102-.205-.512-9.928-21.7L0 .25 3.224 2.4z" fill="#fff"/></mask><g mask="url(#mask0_48_3167)"><path d="M36.182.25H0v30.706h36.182V.25z" fill="#412CAC"/></g><path d="M38.69 19.8l26.1-17.4L68.012.25l-1.637 3.531-9.877 21.648-.205.512-.512.102-21.494 4.862-1.944-.307.767-1.33 5.271-9.162.154-.255.153-.052zM62.793 6.39L40.121 21.488l-3.89 6.756 18.476-4.197 8.086-17.656z" fill="#412CAC"/><mask id="mask1_48_3167" style="mask-type:luminance" maskUnits="userSpaceOnUse" x="32" y="0" width="37" height="31"><path d="M38.69 19.8l26.1-17.4L68.012.25l-1.637 3.531-9.877 21.648-.205.512-.512.102-21.494 4.862-1.944-.307.767-1.33 5.271-9.162.154-.255.153-.052zM62.793 6.39L40.121 21.488l-3.89 6.756 18.476-4.197 8.086-17.656z" fill="#fff"/></mask><g mask="url(#mask1_48_3167)"><path d="M68.014.25H32.293v30.706h35.72V.25z" fill="#412CAC"/></g><mask id="mask2_48_3167" style="mask-type:luminance" maskUnits="userSpaceOnUse" x="28" y="16" width="12" height="13"><path d="M28.71 20.772l.717-2.405.511-1.587 1.433 1.075 2.662 2.047 2.712-2.047 1.433-1.075.46 1.586.717 2.406.153.358-.256.358-4.196 5.988-1.023 1.433-.973-1.433-4.196-5.988-.256-.358.102-.358z" fill="#fff"/></mask><g mask="url(#mask2_48_3167)"><path d="M39.457 16.78h-10.85v12.129h10.85V16.78z" stroke="#412CAC" stroke-width="1.638" stroke-miterlimit="10"/></g><path d="M28.71 20.772l.717-2.405.511-1.587 1.433 1.075 2.662 2.047 2.712-2.047 1.433-1.075.46 1.586.717 2.406.153.358-.256.358-4.196 5.988-1.023 1.433-.973-1.433-4.196-5.988-.256-.358.102-.358z" stroke="#412CAC" stroke-width="1.638" stroke-miterlimit="10"/><mask id="mask3_48_3167" style="mask-type:luminance" maskUnits="userSpaceOnUse" x="29" y="28" width="11" height="16"><path d="M33.52 43.136l-1.074-1.28-.051-2.61-.819 1.638-1.024-1.177.052-2.15-.717 1.382-.614-.716-.256-.256.103-.358 2.149-6.909.051-.358.307-.154 2.098-1.28.307-.153.359.154 2.047 1.28.358.153.051.358 2.15 6.909.05.358-.204.256-.665.716-.665-1.381.05 2.15-1.023 1.176-.819-1.638-.05 2.61-1.076 1.28-.563.614-.511-.614z" fill="#fff"/></mask><g mask="url(#mask3_48_3167)"><path d="M39.048 28.755h-10.03v15.046h10.03V28.755z" stroke="#412CAC" stroke-width="1.535" stroke-miterlimit="10"/></g><path d="M33.52 43.136l-1.074-1.28-.051-2.61-.819 1.638-1.024-1.177.052-2.15-.717 1.382-.614-.716-.256-.256.103-.358 2.149-6.909.051-.358.307-.154 2.098-1.28.307-.153.359.154 2.047 1.28.358.153.051.358 2.15 6.909.05.358-.204.256-.665.716-.665-1.381.05 2.15-1.023 1.176-.819-1.638-.05 2.61-1.076 1.28-.563.614-.511-.614z" stroke="#412CAC" stroke-width="1.535" stroke-miterlimit="10"/></svg>