<svg width="24" height="24" fill="none" xmlns="http://www.w3.org/2000/svg"><path fill-rule="evenodd" clip-rule="evenodd" d="M12 16a4 4 0 110-8 4 4 0 010 8zm2-4a2 2 0 11-4 0 2 2 0 014 0z" fill="#000"/><path fill-rule="evenodd" clip-rule="evenodd" d="M22.196 9.02l-1.842-.369a8.993 8.993 0 00-1.276-2.213l.601-1.778a1 1 0 00-.447-1.186l-3.464-2a1 1 0 00-1.251.206l-1.239 1.41a8.99 8.99 0 00-2.555 0l-1.24-1.41a1 1 0 00-1.251-.206l-3.464 2A1 1 0 004.32 4.66l.601 1.779A9.068 9.068 0 003.645 8.65l-1.841.368A1 1 0 001 10v4a1 1 0 00.804.98l1.842.369c.318.794.747 1.54 1.276 2.213l-.601 1.778a1 1 0 00.447 1.186l3.464 2a1 1 0 001.251-.206l1.239-1.41a9 9 0 002.555 0l1.24 1.41a1 1 0 001.251.206l3.464-2a1 1 0 00.447-1.186l-.601-1.779a9.057 9.057 0 001.277-2.212l1.841-.368A1 1 0 0023 14v-4a1 1 0 00-.804-.98zm-2.786 1.482l1.59.318v2.36l-1.588.318a1 1 0 00-.754.67 7.036 7.036 0 01-1.452 2.514 1 1 0 00-.203.988l.52 1.534-2.045 1.18-1.07-1.217a1 1 0 00-.959-.319 6.99 6.99 0 01-2.9.002 1 1 0 00-.958.318l-1.069 1.216-2.044-1.18.519-1.533a1 1 0 00-.204-.99 6.991 6.991 0 01-1.448-2.512 1 1 0 00-.755-.67L3 13.18v-2.36l1.588-.318a1 1 0 00.754-.67 7.033 7.033 0 011.452-2.514 1 1 0 00.203-.988l-.52-1.534 2.045-1.18 1.07 1.217a1 1 0 00.959.319 6.991 6.991 0 012.9-.002 1 1 0 00.958-.318l1.069-1.216 2.044 1.18-.519 1.533a1 1 0 00.204.99 6.992 6.992 0 011.448 2.512 1 1 0 00.755.67z" fill="#000"/></svg>