<svg width="24" height="24" viewBox="0 0 24 24" fill="none" xmlns="http://www.w3.org/2000/svg">
<path fill-rule="evenodd" clip-rule="evenodd" d="M18 3.8058C18 2.45517 16.5349 1.61364 15.3682 2.29418L10.7297 5.00002H7C4.23858 5.00002 2 7.2386 2 10C2 11.6935 2.84192 13.1904 4.13003 14.0948L5.87593 20.2055C6.04141 20.7847 6.39183 21.2938 6.87372 21.6552L6.9453 21.7089C8.17818 22.6336 9.90336 22.511 10.9931 21.4213C11.6943 20.72 11.9505 19.6885 11.6589 18.7407L10.5079 15H10.7639L15.4674 17.3517C16.631 17.9335 18 17.0874 18 15.7865V3.8058ZM12 6.57439L16 4.24106V15.382L12 13.382V6.57439ZM10 7.00002H7C5.34315 7.00002 4 8.34317 4 10C4 11.6569 5.34315 13 7 13H10V7.00002ZM7.79898 19.6561L6.46047 14.9712C6.6377 14.9903 6.81771 15 7 15H8.41537L9.74731 19.3288C9.8211 19.5687 9.75629 19.8296 9.57886 20.007C9.19293 20.393 8.58194 20.4364 8.1453 20.1089L8.07372 20.0552C7.94103 19.9557 7.84455 19.8155 7.79898 19.6561Z" fill="black"/>
<path d="M21.7242 7.31037C21.3433 6.91044 20.7103 6.89501 20.3104 7.2759C19.9105 7.6568 19.8951 8.28977 20.276 8.6897C20.5046 8.92973 20.6213 9.11467 20.6892 9.2844C20.7571 9.45412 20.8001 9.66854 20.8001 10C20.8001 10.3315 20.757 10.5459 20.6891 10.7156C20.6213 10.8854 20.5045 11.0703 20.2759 11.3103C19.895 11.7102 19.9104 12.3432 20.3103 12.7241C20.7102 13.105 21.3432 13.0896 21.7241 12.6897C22.0757 12.3206 22.359 11.9262 22.5461 11.4585C22.7332 10.9908 22.8001 10.5098 22.8001 10C22.8001 9.49031 22.7332 9.0093 22.5461 8.54162C22.3591 8.07393 22.0758 7.67948 21.7242 7.31037Z" fill="black"/>
</svg>
