<svg width="24" height="24" viewBox="0 0 24 24" fill="none" xmlns="http://www.w3.org/2000/svg">
<path d="M9.00011 14C9.00011 13.4477 8.55239 13 8.00011 13C7.44782 13 7.00011 13.4477 7.00011 14V17C7.00011 17.5523 7.44782 18 8.00011 18C8.55239 18 9.00011 17.5523 9.00011 17V14Z" fill="black"/>
<path d="M13.0001 17V14C13.0001 13.4477 12.5524 13 12.0001 13C11.4478 13 11.0001 13.4477 11.0001 14V17C11.0001 17.5523 11.4478 18 12.0001 18C12.5524 18 13.0001 17.5523 13.0001 17Z" fill="black"/>
<path d="M16.0001 13C16.5524 13 17.0001 13.4477 17.0001 14V17C17.0001 17.5523 16.5524 18 16.0001 18C15.4478 18 15.0001 17.5523 15.0001 17V14C15.0001 13.4477 15.4478 13 16.0001 13Z" fill="black"/>
<path fill-rule="evenodd" clip-rule="evenodd" d="M12.7072 1.29289L19.4143 8H19.993C21.9008 8 23.324 9.75741 22.9274 11.6236L21.1833 19.8314C20.7907 21.6789 19.1593 23 17.2706 23H6.72959C4.84088 23 3.20954 21.6789 2.81695 19.8314L1.07276 11.6236C0.676193 9.75742 2.09939 8 4.00723 8H4.58589L11.293 1.29289C11.6835 0.902369 12.3167 0.902369 12.7072 1.29289ZM19.993 10C20.6289 10 21.1033 10.5858 20.9711 11.2079L19.2269 19.4157C19.0307 20.3394 18.215 21 17.2706 21H6.72959C5.78523 21 4.96956 20.3395 4.77327 19.4157L3.02907 11.2079C2.89689 10.5858 3.37129 10 4.00723 10H19.993ZM16.5859 8H7.41432L12.0001 3.41421L16.5859 8Z" fill="black"/>
</svg>
