<svg width="24" height="24" viewBox="0 0 24 24" fill="none" xmlns="http://www.w3.org/2000/svg">
<path d="M11.992 7.526C13.42 7.526 14.824 8.258 14.824 9.926C14.824 10.982 14.308 11.474 13.48 12.11C12.964 12.518 12.832 12.722 12.832 13.226V13.538H10.96V13.082C10.96 12.242 11.284 11.834 11.908 11.282L12.304 10.91C12.58 10.67 12.796 10.43 12.796 10.058C12.796 9.554 12.46 9.218 11.92 9.218C11.26 9.218 10.912 9.758 10.888 10.334L8.97998 10.13C9.15998 8.39 10.456 7.526 11.992 7.526Z" fill="black"/>
<path d="M11.908 14.102C12.544 14.102 13.072 14.606 13.072 15.23C13.072 15.866 12.556 16.37 11.908 16.37C11.272 16.37 10.732 15.878 10.732 15.242C10.732 14.618 11.26 14.102 11.908 14.102Z" fill="black"/>
<path fill-rule="evenodd" clip-rule="evenodd" d="M12 22C17.5228 22 22 17.5228 22 12C22 6.47715 17.5228 2 12 2C6.47715 2 2 6.47715 2 12C2 17.5228 6.47715 22 12 22ZM20 12C20 16.4183 16.4183 20 12 20C7.58172 20 4 16.4183 4 12C4 7.58172 7.58172 4 12 4C16.4183 4 20 7.58172 20 12Z" fill="black"/>
</svg>
