<svg width="24" height="24" viewBox="0 0 24 24" fill="none" xmlns="http://www.w3.org/2000/svg">
<path d="M4.50721 18.6695C4.13744 18.2593 4.17025 17.627 4.58048 17.2572C4.99071 16.8874 5.62303 16.9202 5.99279 17.3305C7.49925 19.0018 9.69989 20 12 20C16.4183 20 20 16.4183 20 12C20 7.58172 16.4183 4 12 4C7.7244 4 4.2322 7.35413 4.01111 11.5747L4.29289 11.2929C4.68342 10.9024 5.31658 10.9024 5.70711 11.2929C6.09763 11.6834 6.09763 12.3166 5.70711 12.7071L3.70711 14.7071C3.31658 15.0976 2.68342 15.0976 2.29289 14.7071L0.292893 12.7071C-0.0976311 12.3166 -0.0976311 11.6834 0.292893 11.2929C0.683418 10.9024 1.31658 10.9024 1.70711 11.2929L2.0081 11.5939C2.22117 6.25933 6.61318 2 12 2C17.5228 2 22 6.47715 22 12C22 17.5228 17.5228 22 12 22C9.12811 22 6.38946 20.7578 4.50721 18.6695Z" fill="black"/>
<path d="M12 12H15C15.5523 12 16 12.4477 16 13C16 13.5523 15.5523 14 15 14H11C10.4477 14 10 13.5523 10 13V9C10 8.44772 10.4477 8 11 8C11.5523 8 12 8.44772 12 9V12Z" fill="black"/>
</svg>
