<svg width="24" height="24" viewBox="0 0 24 24" fill="none" xmlns="http://www.w3.org/2000/svg">
<path d="M5 4C4.44772 4 4 4.44772 4 5V11C4 11.5523 3.55228 12 3 12C2.44772 12 2 11.5523 2 11V5C2 3.34315 3.34315 2 5 2H11C11.5523 2 12 2.44772 12 3C12 3.55228 11.5523 4 11 4H5Z" fill="black"/>
<path fill-rule="evenodd" clip-rule="evenodd" d="M14 6C14 3.79086 15.7909 2 18 2C20.2091 2 22 3.79086 22 6C22 8.20914 20.2091 10 18 10C17.2582 10 16.5635 9.79807 15.968 9.44618L9.44618 15.968C9.79807 16.5635 10 17.2582 10 18C10 20.2091 8.20914 22 6 22C3.79086 22 2 20.2091 2 18C2 15.7909 3.79086 14 6 14C6.74181 14 7.43645 14.2019 8.03197 14.5538L14.5538 8.03197C14.2019 7.43645 14 6.74181 14 6ZM18 4C16.8954 4 16 4.89543 16 6C16 7.10457 16.8954 8 18 8C19.1046 8 20 7.10457 20 6C20 4.89543 19.1046 4 18 4ZM6 16C4.89543 16 4 16.8954 4 18C4 19.1046 4.89543 20 6 20C7.10457 20 8 19.1046 8 18C8 16.8954 7.10457 16 6 16Z" fill="black"/>
<path d="M21 12C21.5523 12 22 12.4477 22 13V19C22 20.6569 20.6569 22 19 22H13C12.4477 22 12 21.5523 12 21C12 20.4477 12.4477 20 13 20H19C19.5523 20 20 19.5523 20 19V13C20 12.4477 20.4477 12 21 12Z" fill="black"/>
</svg>
