<svg width="24" height="24" viewBox="0 0 24 24" fill="none" xmlns="http://www.w3.org/2000/svg">
<path fill-rule="evenodd" clip-rule="evenodd" d="M1.82309 14.6456L9.35447 22.177C10.1355 22.958 11.4018 22.958 12.1829 22.177L21.4801 12.8798C22.1646 12.1953 22.4767 11.2226 22.3183 10.2676L21.2138 3.60917C21.1438 3.18709 20.813 2.85631 20.3909 2.7863L13.7325 1.68178C12.7775 1.52336 11.8048 1.8355 11.1203 2.52002L1.82309 11.8172C1.04204 12.5982 1.04204 13.8646 1.82309 14.6456ZM20.0658 11.4656L10.7687 20.7628L3.2373 13.2314L12.5345 3.93423C12.7626 3.70606 13.0869 3.60201 13.4052 3.65481L19.3578 4.64226L20.3453 10.5948C20.3981 10.9132 20.294 11.2374 20.0658 11.4656ZM13.8148 7.23481C13.0337 8.01586 13.0337 9.28219 13.8148 10.0632C14.5958 10.8443 15.8621 10.8443 16.6432 10.0632C17.4242 9.28219 17.4242 8.01586 16.6432 7.23481C15.8621 6.45376 14.5958 6.45376 13.8148 7.23481Z" fill="black"/>
</svg>
