<svg width="24" height="24" viewBox="0 0 24 24" fill="none" xmlns="http://www.w3.org/2000/svg">
<path fill-rule="evenodd" clip-rule="evenodd" d="M12 16C9.79086 16 8 14.2092 8 12C8 9.79088 9.79086 8.00002 12 8.00002C14.2091 8.00002 16 9.79088 16 12C16 14.2092 14.2091 16 12 16ZM14 12C14 13.1046 13.1046 14 12 14C10.8954 14 10 13.1046 10 12C10 10.8954 10.8954 10 12 10C13.1046 10 14 10.8954 14 12Z" fill="black"/>
<path fill-rule="evenodd" clip-rule="evenodd" d="M22.1961 9.01944L20.3541 8.65103C20.0363 7.85706 19.6072 7.11142 19.078 6.43767L19.6793 4.66021C19.8321 4.20867 19.6449 3.71208 19.232 3.47374L15.7679 1.47374C15.3551 1.2354 14.8315 1.32157 14.5168 1.67963L13.2781 3.08909C12.43 2.9677 11.5697 2.96886 10.7233 3.09069L9.4832 1.67963C9.16853 1.32157 8.64487 1.2354 8.23205 1.47374L4.76795 3.47374C4.35513 3.71208 4.16793 4.20867 4.32068 4.66021L4.9224 6.43891C4.66028 6.77327 4.42083 7.12752 4.20577 7.50002C3.99071 7.87252 3.80364 8.25701 3.64514 8.65119L1.80388 9.01944C1.33646 9.11292 1 9.52334 1 10V14C1 14.4767 1.33646 14.8871 1.80388 14.9806L3.64593 15.349C3.96365 16.143 4.39281 16.8886 4.92197 17.5624L4.32068 19.3398C4.16793 19.7914 4.35513 20.288 4.76795 20.5263L8.23205 22.5263C8.64487 22.7646 9.16853 22.6785 9.4832 22.3204L10.7219 20.9109C11.57 21.0323 12.4303 21.0312 13.2767 20.9093L14.5168 22.3204C14.8315 22.6785 15.3551 22.7646 15.768 22.5263L19.2321 20.5263C19.6449 20.288 19.8321 19.7914 19.6793 19.3398L19.0776 17.5611C19.3397 17.2268 19.5792 16.8725 19.7942 16.5C20.0093 16.1275 20.1964 15.743 20.3549 15.3489L22.1961 14.9806C22.6635 14.8871 23 14.4767 23 14V10C23 9.52334 22.6635 9.11292 22.1961 9.01944ZM19.4103 10.5019L21 10.8198V13.1802L19.412 13.4978C19.0581 13.5686 18.7698 13.8246 18.6576 14.1677C18.5073 14.6275 18.3085 15.0733 18.0622 15.5C17.8158 15.9267 17.5291 16.3218 17.2061 16.6819C16.965 16.9505 16.8875 17.3282 17.0031 17.6701L17.5221 19.2041L15.4779 20.3843L14.4077 19.1666C14.1691 18.8951 13.8027 18.7735 13.4492 18.8484C12.4935 19.051 11.5057 19.053 10.5493 18.8502C10.1957 18.7753 9.82928 18.8969 9.59071 19.1684L8.52208 20.3843L6.47792 19.2041L6.99667 17.6707C7.11247 17.3284 7.03457 16.9502 6.79289 16.6815C6.13908 15.9546 5.64687 15.0981 5.34451 14.1692C5.23265 13.8256 4.9441 13.569 4.58973 13.4982L3 13.1802L3 10.8198L4.58798 10.5022C4.94191 10.4314 5.23023 10.1754 5.34237 9.83234C5.49265 9.37258 5.69146 8.92673 5.93782 8.50002C6.18418 8.07331 6.4709 7.67821 6.79392 7.31818C7.03496 7.04953 7.11253 6.67182 6.99686 6.32991L6.47792 4.79589L8.52208 3.61569L9.5923 4.83347C9.83086 5.10492 10.1973 5.22654 10.5508 5.1516C11.5065 4.94901 12.4943 4.94702 13.4507 5.14979C13.8043 5.22474 14.1707 5.10312 14.4093 4.83167L15.4779 3.61569L17.5221 4.79589L17.0033 6.32934C16.8875 6.67167 16.9654 7.04985 17.2071 7.31853C17.8609 8.04542 18.3531 8.90194 18.6555 9.83082C18.7673 10.1745 19.0559 10.431 19.4103 10.5019Z" fill="black"/>
</svg>
