<svg width="24" height="25" viewBox="0 0 24 25" fill="none" xmlns="http://www.w3.org/2000/svg">
<path fill-rule="evenodd" clip-rule="evenodd" d="M7 4.5C6.44772 4.5 6 4.94772 6 5.5V19.5C6 20.0523 6.44772 20.5 7 20.5H17C17.5523 20.5 18 20.0523 18 19.5C18 18.9477 18.4477 18.5 19 18.5C19.5523 18.5 20 18.9477 20 19.5C20 21.1569 18.6569 22.5 17 22.5H7C5.34315 22.5 4 21.1569 4 19.5V5.5C4 3.84315 5.34315 2.5 7 2.5H17C18.6569 2.5 20 3.84315 20 5.5C20 6.05228 19.5523 6.5 19 6.5C18.4477 6.5 18 6.05228 18 5.5C18 4.94772 17.5523 4.5 17 4.5H7ZM17.2929 10.2071C16.9024 9.81658 16.9024 9.18342 17.2929 8.79289C17.6834 8.40237 18.3166 8.40237 18.7071 8.79289L21.7071 11.7929C22.0976 12.1834 22.0976 12.8166 21.7071 13.2071L18.7071 16.2071C18.3166 16.5976 17.6834 16.5976 17.2929 16.2071C16.9024 15.8166 16.9024 15.1834 17.2929 14.7929L18.5858 13.5H11C10.4477 13.5 10 13.0523 10 12.5C10 11.9477 10.4477 11.5 11 11.5H18.5858L17.2929 10.2071Z" fill="black"/>
</svg>
