<svg width="69" height="45" viewBox="0 0 69 45" fill="none" xmlns="http://www.w3.org/2000/svg">
<path d="M27.8912 21.4882L5.22 6.39118L13.3059 24.0471L31.7806 28.2435L27.8912 21.4882ZM3.22412 2.39941L29.3241 19.7994L29.5288 19.9529L29.6824 20.2088L34.9535 29.3694L36.1818 30.5976L33.7765 30.9559L12.2824 26.0941L11.7706 25.9918L11.5659 25.48L1.63765 3.78118L0 0.25L3.22412 2.39941Z" fill="#412CAC"/>
<mask id="mask0_48_3167" style="mask-type:luminance" maskUnits="userSpaceOnUse" x="0" y="0" width="37" height="31">
<path d="M27.8912 21.4882L5.22 6.39118L13.3059 24.0471L31.7806 28.2435L27.8912 21.4882ZM3.22412 2.39941L29.3241 19.7994L29.5288 19.9529L29.6824 20.2088L34.9535 29.3694L36.1818 30.5976L33.7765 30.9559L12.2824 26.0941L11.7706 25.9918L11.5659 25.48L1.63765 3.78118L0 0.25L3.22412 2.39941Z" fill="white"/>
</mask>
<g mask="url(#mask0_48_3167)">
<path d="M36.1818 0.25H0V30.9559H36.1818V0.25Z" fill="#412CAC"/>
</g>
<path d="M38.6894 19.7994L64.7894 2.39941L68.0135 0.25L66.3759 3.78118L56.4988 25.4288L56.2941 25.9406L55.7823 26.0429L34.2882 30.9047L32.3435 30.5976L33.1112 29.2671L38.3823 20.1065L38.5359 19.8506L38.6894 19.7994ZM62.7935 6.39118L40.1223 21.4882L36.2329 28.2435L54.7076 24.0471L62.7935 6.39118Z" fill="#412CAC"/>
<mask id="mask1_48_3167" style="mask-type:luminance" maskUnits="userSpaceOnUse" x="32" y="0" width="37" height="31">
<path d="M38.6894 19.7994L64.7894 2.39941L68.0135 0.25L66.3759 3.78118L56.4988 25.4288L56.2941 25.9406L55.7823 26.0429L34.2882 30.9047L32.3435 30.5976L33.1112 29.2671L38.3823 20.1065L38.5359 19.8506L38.6894 19.7994ZM62.7935 6.39118L40.1223 21.4882L36.2329 28.2435L54.7076 24.0471L62.7935 6.39118Z" fill="white"/>
</mask>
<g mask="url(#mask1_48_3167)">
<path d="M68.0137 0.25H32.2925V30.9559H68.0137V0.25Z" fill="#412CAC"/>
</g>
<mask id="mask2_48_3167" style="mask-type:luminance" maskUnits="userSpaceOnUse" x="28" y="16" width="12" height="13">
<path d="M28.7101 20.7718L29.4266 18.3665L29.9384 16.78L31.3713 17.8547L34.0325 19.9018L36.7448 17.8547L38.1778 16.78L38.6384 18.3665L39.3548 20.7718L39.5084 21.13L39.2525 21.4882L35.056 27.4759L34.0325 28.9088L33.0601 27.4759L28.8637 21.4882L28.6078 21.13L28.7101 20.7718Z" fill="white"/>
</mask>
<g mask="url(#mask2_48_3167)">
<path d="M39.4572 16.78H28.6078V28.9088H39.4572V16.78Z" stroke="#412CAC" stroke-width="1.63765" stroke-miterlimit="10"/>
</g>
<path d="M28.7101 20.7718L29.4266 18.3665L29.9384 16.78L31.3713 17.8547L34.0325 19.9018L36.7448 17.8547L38.1778 16.78L38.6384 18.3665L39.3548 20.7718L39.5084 21.13L39.2525 21.4882L35.056 27.4759L34.0325 28.9088L33.0601 27.4759L28.8637 21.4882L28.6078 21.13L28.7101 20.7718Z" stroke="#412CAC" stroke-width="1.63765" stroke-miterlimit="10"/>
<mask id="mask3_48_3167" style="mask-type:luminance" maskUnits="userSpaceOnUse" x="29" y="28" width="11" height="16">
<path d="M33.5207 43.1359L32.446 41.8565L32.3949 39.2465L31.576 40.8841L30.5525 39.7071L30.6037 37.5577L29.8872 38.9394L29.2731 38.223L29.0172 37.9671L29.1196 37.6088L31.269 30.7L31.3202 30.3418L31.6272 30.1883L33.7254 28.9088L34.0325 28.7553L34.3907 28.9088L36.4378 30.1883L36.796 30.3418L36.8472 30.7L38.9966 37.6088L39.0478 37.9671L38.8431 38.223L38.1778 38.9394L37.5125 37.5577L37.5637 39.7071L36.5402 40.8841L35.7213 39.2465L35.6702 41.8565L34.5954 43.1359L34.0325 43.75L33.5207 43.1359Z" fill="white"/>
</mask>
<g mask="url(#mask3_48_3167)">
<path d="M39.0478 28.7553H29.0172V43.8012H39.0478V28.7553Z" stroke="#412CAC" stroke-width="1.53529" stroke-miterlimit="10"/>
</g>
<path d="M33.5207 43.1359L32.446 41.8565L32.3949 39.2465L31.576 40.8841L30.5525 39.7071L30.6037 37.5577L29.8872 38.9394L29.2731 38.223L29.0172 37.9671L29.1196 37.6088L31.269 30.7L31.3202 30.3418L31.6272 30.1883L33.7254 28.9088L34.0325 28.7553L34.3907 28.9088L36.4378 30.1883L36.796 30.3418L36.8472 30.7L38.9966 37.6088L39.0478 37.9671L38.8431 38.223L38.1778 38.9394L37.5125 37.5577L37.5637 39.7071L36.5402 40.8841L35.7213 39.2465L35.6702 41.8565L34.5954 43.1359L34.0325 43.75L33.5207 43.1359Z" stroke="#412CAC" stroke-width="1.53529" stroke-miterlimit="10"/>
</svg>
